<svg width="101" height="101" viewBox="0 0 101 101" fill="none" xmlns="http://www.w3.org/2000/svg">
<path d="M12.625 25.25H21.0417M21.0417 25.25H88.375M21.0417 25.25V84.1666C21.0417 86.3989 21.9284 88.5397 23.5069 90.1181C25.0853 91.6965 27.2261 92.5833 29.4583 92.5833H71.5417C73.7739 92.5833 75.9147 91.6965 77.4931 90.1181C79.0716 88.5397 79.9583 86.3989 79.9583 84.1666V25.25M33.6667 25.25V16.8333C33.6667 14.6011 34.5534 12.4602 36.1319 10.8818C37.7103 9.30338 39.8511 8.41663 42.0833 8.41663H58.9167C61.1489 8.41663 63.2897 9.30338 64.8681 10.8818C66.4466 12.4602 67.3333 14.6011 67.3333 16.8333V25.25M42.0833 46.2916V71.5416M58.9167 46.2916V71.5416" stroke="white" stroke-width="4" stroke-linecap="round" stroke-linejoin="round"/>
</svg>
